<svg width="1584" height="396" viewBox="0 0 1584 396" fill="none" xmlns="http://www.w3.org/2000/svg">
<rect width="1584" height="396" fill="#F5F5F5"/>
<g id="Awesome banner" clip-path="url(#clip0_0_1)">
<rect width="1584" height="396" fill="url(#paint0_linear_0_1)"/>
<ellipse id="Ellipse 2" cx="323" cy="64" rx="285" ry="288" fill="url(#paint1_linear_0_1)" fill-opacity="0.1"/>
<g id="copyright">
<path d="M75.95 334.52L72.30 334.52L72.30 311.16L77.20 311.16L83.70 330.04Q83.60 329.02 83.50 327.62Q83.41 326.23 83.33 324.79Q83.25 323.35 83.25 322.23L83.25 311.16L86.90 311.16L86.90 334.52L82 334.52L75.57 315.64Q75.63 316.57 75.73 317.88Q75.82 319.19 75.89 320.57Q75.95 321.94 75.95 323.10L75.95 334.52M98.80 334.84Q96.46 334.84 94.67 333.96Q92.88 333.08 91.89 331.53Q90.90 329.98 90.90 327.93Q90.90 325.78 92.13 324.18Q93.36 322.58 95.34 322.17L95.34 322.10Q93.65 321.75 92.61 320.38Q91.57 319 91.57 317.11Q91.57 315.26 92.48 313.85Q93.39 312.44 95.02 311.64Q96.66 310.84 98.80 310.84Q100.94 310.84 102.59 311.64Q104.24 312.44 105.15 313.85Q106.06 315.26 106.06 317.11Q106.06 319 105.01 320.38Q103.95 321.75 102.26 322.10L102.26 322.17Q104.24 322.58 105.47 324.18Q106.70 325.78 106.70 327.93Q106.70 329.98 105.71 331.53Q104.72 333.08 102.93 333.96Q101.14 334.84 98.80 334.84M98.80 320.73Q100.30 320.73 101.23 319.82Q102.16 318.90 102.16 317.46Q102.16 315.99 101.23 315.08Q100.30 314.17 98.80 314.17Q97.30 314.17 96.37 315.08Q95.44 315.99 95.44 317.46Q95.44 318.90 96.37 319.82Q97.30 320.73 98.80 320.73M98.80 331.45Q100.56 331.45 101.68 330.42Q102.80 329.40 102.80 327.74Q102.80 326.04 101.68 325Q100.56 323.96 98.80 323.96Q97.04 323.96 95.92 325Q94.80 326.04 94.80 327.74Q94.80 329.40 95.92 330.42Q97.04 331.45 98.80 331.45M114.35 334.52L110.70 334.52L110.70 311.16L115.60 311.16L122.10 330.04Q122 329.02 121.90 327.62Q121.81 326.23 121.73 324.79Q121.65 323.35 121.65 322.23L121.65 311.16L125.30 311.16L125.30 334.52L120.40 334.52L113.97 315.64Q114.03 316.57 114.13 317.88Q114.22 319.19 114.29 320.57Q114.35 321.94 114.35 323.10" fill="white" fill-opacity="0.9"/>
<path d="M161.48 325.24L151.24 325.24L151.24 322.68L161.48 322.68" fill="white" fill-opacity="0.9"/>
<path d="M195.02 334.84Q191.82 334.84 189.96 333.05Q188.11 331.26 188.11 328.12L188.11 317.56Q188.11 314.42 189.96 312.63Q191.82 310.84 195.02 310.84Q198.15 310.84 200.01 312.65Q201.87 314.46 201.87 317.56L198.99 317.56Q198.99 315.58 197.95 314.50Q196.91 313.43 195.02 313.43Q193.13 313.43 192.06 314.50Q190.99 315.58 190.99 317.56L190.99 328.12Q190.99 330.10 192.06 331.18Q193.13 332.25 195.02 332.25Q196.91 332.25 197.95 331.18Q198.99 330.10 198.99 328.12L201.87 328.12Q201.87 331.22 200.01 333.03Q198.15 334.84 195.02 334.84" fill="white" fill-opacity="0.9"/>
<path d="M213.96 334.84Q210.83 334.84 209 333.02Q207.18 331.19 207.18 327.80L207.18 317.88Q207.18 314.49 209 312.66Q210.83 310.84 213.96 310.84Q217.10 310.84 218.92 312.66Q220.75 314.49 220.75 317.85L220.75 327.80Q220.75 331.19 218.92 333.02Q217.10 334.84 213.96 334.84M213.96 332.25Q215.85 332.25 216.86 331.18Q217.87 330.10 217.87 328.12L217.87 317.56Q217.87 315.58 216.86 314.50Q215.85 313.43 213.96 313.43Q212.11 313.43 211.08 314.50Q210.06 315.58 210.06 317.56L210.06 328.12Q210.06 330.10 211.08 331.18Q212.11 332.25 213.96 332.25" fill="white" fill-opacity="0.9"/>
<path d="M228.65 334.52L225.87 334.52L225.87 311.16L230.12 311.16L233.10 321.27L236.20 311.16L240.46 311.16L240.46 334.52L237.67 334.52L237.67 323.48Q237.67 321.91 237.72 319.88Q237.77 317.85 237.87 315.77Q237.96 313.69 238.09 312.02L234.31 324.09L231.82 324.09L228.20 312.31Q228.46 314.68 228.55 317.50Q228.65 320.31 228.65 323.48" fill="white" fill-opacity="0.9"/>
<path d="M247.85 334.52L245.07 334.52L245.07 311.16L249.32 311.16L252.30 321.27L255.40 311.16L259.66 311.16L259.66 334.52L256.87 334.52L256.87 323.48Q256.87 321.91 256.92 319.88Q256.97 317.85 257.07 315.77Q257.16 313.69 257.29 312.02L253.51 324.09L251.02 324.09L247.40 312.31Q247.66 314.68 247.75 317.50Q247.85 320.31 247.85 323.48" fill="white" fill-opacity="0.9"/>
<path d="M271.56 334.84Q268.30 334.84 266.57 333.03Q264.84 331.22 264.84 328.12L264.84 311.16L267.72 311.16L267.72 328.12Q267.72 330.04 268.67 331.16Q269.61 332.28 271.56 332.28Q273.48 332.28 274.44 331.16Q275.40 330.04 275.40 328.12L275.40 311.16L278.28 311.16L278.28 328.12Q278.28 331.26 276.57 333.05Q274.86 334.84 271.56 334.84" fill="white" fill-opacity="0.9"/>
<path d="M286.83 334.52L284.04 334.52L284.04 311.16L287.88 311.16L295.02 331.16Q294.95 330.36 294.87 329.19Q294.79 328.02 294.75 326.73Q294.70 325.43 294.70 324.28L294.70 311.16L297.48 311.16L297.48 334.52L293.64 334.52L286.54 314.52Q286.60 315.29 286.67 316.46Q286.73 317.62 286.78 318.92Q286.83 320.22 286.83 321.40" fill="white" fill-opacity="0.9"/>
<path d="M316.20 334.52L303.72 334.52L303.72 331.90L308.49 331.90L308.49 313.78L303.72 313.78L303.72 311.16L316.20 311.16L316.20 313.78L311.43 313.78L311.43 331.90L316.20 331.90" fill="white" fill-opacity="0.9"/>
<path d="M330.60 334.52L327.72 334.52L327.72 313.78L321.32 313.78L321.32 311.16L337 311.16L337 313.78L330.60 313.78" fill="white" fill-opacity="0.9"/>
<path d="M349.80 334.52L346.92 334.52L346.92 325.78L339.88 311.16L342.95 311.16L347.50 320.76Q347.88 321.56 348.11 322.12Q348.33 322.68 348.39 322.94Q348.46 322.68 348.70 322.12Q348.94 321.56 349.32 320.76L353.87 311.16L356.84 311.16L349.80 325.78" fill="white" fill-opacity="0.9"/>
<path d="M382.83 334.52L380.04 334.52L380.04 311.16L383.88 311.16L391.02 331.16Q390.95 330.36 390.87 329.19Q390.79 328.02 390.75 326.73Q390.70 325.43 390.70 324.28L390.70 311.16L393.48 311.16L393.48 334.52L389.64 334.52L382.54 314.52Q382.60 315.29 382.67 316.46Q382.73 317.62 382.78 318.92Q382.83 320.22 382.83 321.40" fill="white" fill-opacity="0.9"/>
<path d="M405.96 334.84Q402.83 334.84 401 333.02Q399.18 331.19 399.18 327.80L399.18 317.88Q399.18 314.49 401 312.66Q402.83 310.84 405.96 310.84Q409.10 310.84 410.92 312.66Q412.75 314.49 412.75 317.85L412.75 327.80Q412.75 331.19 410.92 333.02Q409.10 334.84 405.96 334.84M405.96 332.25Q407.85 332.25 408.86 331.18Q409.87 330.10 409.87 328.12L409.87 317.56Q409.87 315.58 408.86 314.50Q407.85 313.43 405.96 313.43Q404.11 313.43 403.08 314.50Q402.06 315.58 402.06 317.56L402.06 328.12Q402.06 330.10 403.08 331.18Q404.11 332.25 405.96 332.25" fill="white" fill-opacity="0.9"/>
<path d="M424.55 334.52L418.51 334.52L418.51 311.16L424.55 311.16Q426.83 311.16 428.47 312.02Q430.12 312.89 431.03 314.46Q431.95 316.02 431.95 318.17L431.95 327.48Q431.95 329.62 431.03 331.21Q430.12 332.79 428.47 333.66Q426.83 334.52 424.55 334.52M421.39 313.72L421.39 331.96L424.55 331.96Q426.67 331.96 427.87 330.78Q429.07 329.59 429.07 327.48L429.07 318.17Q429.07 316.09 427.87 314.90Q426.67 313.72 424.55 313.72" fill="white" fill-opacity="0.9"/>
<path d="M451.40 334.52L437.96 334.52L437.96 311.16L451.40 311.16L451.40 313.78L440.81 313.78L440.81 321.02L450.28 321.02L450.28 323.58L440.81 323.58L440.81 331.90L451.40 331.90" fill="white" fill-opacity="0.9"/>
<path d="M463.69 334.84Q460.30 334.84 458.28 333.05Q456.27 331.26 456.27 328.12L459.15 328.12Q459.15 330.07 460.39 331.18Q461.64 332.28 463.69 332.28Q465.67 332.28 466.86 331.13Q468.04 329.98 468.04 328.12Q468.04 326.71 467.29 325.67Q466.54 324.63 465.13 324.25L461.58 323.26Q459.37 322.62 458.11 320.97Q456.84 319.32 456.84 317.08Q456.84 315.22 457.67 313.82Q458.51 312.41 460.01 311.62Q461.51 310.84 463.47 310.84Q465.45 310.84 466.97 311.62Q468.49 312.41 469.35 313.80Q470.22 315.19 470.22 317.02L467.34 317.02Q467.34 315.42 466.25 314.41Q465.16 313.40 463.47 313.40Q461.77 313.40 460.71 314.41Q459.66 315.42 459.66 317.02Q459.66 318.30 460.35 319.21Q461.03 320.12 462.28 320.47L465.93 321.50Q468.27 322.14 469.56 323.91Q470.86 325.69 470.86 328.12Q470.86 331.19 468.91 333.02Q466.95 334.84 463.69 334.84" fill="white" fill-opacity="0.9"/>
</g>
<path d="M74.37 197.64L72.23 197.64L72.23 180.12L77.63 180.12Q79.19 180.12 80.37 180.76Q81.54 181.39 82.19 182.52Q82.84 183.65 82.84 185.16Q82.84 186.94 81.93 188.21Q81.02 189.48 79.50 189.98L83.08 197.64L80.70 197.64L77.27 190.20L74.37 190.20L74.37 197.64M74.37 182.06L74.37 188.26L77.63 188.26Q78.98 188.26 79.79 187.40Q80.61 186.55 80.61 185.16Q80.61 183.74 79.79 182.90Q78.98 182.06 77.63 182.06" fill="white" fill-opacity="0.7"/>
<path d="M91.58 197.88Q89.30 197.88 87.93 196.52Q86.56 195.17 86.56 192.84L86.56 184.44L88.72 184.44L88.72 192.84Q88.72 194.28 89.49 195.13Q90.26 195.98 91.58 195.98Q92.92 195.98 93.70 195.13Q94.48 194.28 94.48 192.84L94.48 184.44L96.64 184.44L96.64 192.84Q96.64 195.17 95.25 196.52Q93.86 197.88 91.58 197.88" fill="white" fill-opacity="0.7"/>
<path d="M102.26 197.64L100.24 197.64L100.24 184.44L102.11 184.44L102.11 186.19L102.16 186.19Q102.28 185.30 102.87 184.75Q103.46 184.20 104.37 184.20Q105.23 184.20 105.83 184.70Q106.43 185.21 106.70 186.07L106.72 186.07Q106.89 185.21 107.48 184.70Q108.06 184.20 108.98 184.20Q110.25 184.20 111 185.15Q111.76 186.10 111.76 187.61L111.76 197.64L109.74 197.64L109.74 187.58Q109.74 186.79 109.36 186.32Q108.98 185.86 108.30 185.86Q107.66 185.86 107.27 186.31Q106.89 186.77 106.89 187.56L106.89 197.64L105.11 197.64L105.11 187.58Q105.11 186.79 104.73 186.32Q104.34 185.86 103.70 185.86Q103.02 185.86 102.64 186.31Q102.26 186.77 102.26 187.56" fill="white" fill-opacity="0.7"/>
<path d="M121.17 197.88Q119.68 197.88 118.72 197.15Q117.76 196.42 117.59 195.12L117.57 195.12L117.57 197.64L115.41 197.64L115.41 180.12L117.57 180.12L117.57 183.96L117.52 186.96L117.54 186.96Q117.74 185.69 118.71 184.94Q119.68 184.20 121.17 184.20Q123.16 184.20 124.34 185.52Q125.51 186.84 125.51 189.12L125.51 192.98Q125.51 195.24 124.34 196.56Q123.16 197.88 121.17 197.88M120.45 196.01Q121.82 196.01 122.58 195.29Q123.35 194.57 123.35 192.96L123.35 189.12Q123.35 187.49 122.58 186.78Q121.82 186.07 120.45 186.07Q119.13 186.07 118.35 186.91Q117.57 187.75 117.57 189.24L117.57 192.84Q117.57 194.33 118.35 195.17Q119.13 196.01 120.45 196.01" fill="white" fill-opacity="0.7"/>
<path d="M140.80 197.64L136.72 197.64Q134.97 197.64 133.92 196.62Q132.88 195.60 132.88 193.92L132.88 182.09L128.32 182.09L128.32 180.12L135.04 180.12L135.04 193.92Q135.04 194.74 135.50 195.20Q135.95 195.67 136.72 195.67L140.80 195.67" fill="white" fill-opacity="0.7"/>
<path d="M149.20 197.88Q146.87 197.88 145.44 196.48Q144.02 195.07 144.02 192.60L144.02 189.48Q144.02 187.01 145.44 185.60Q146.87 184.20 149.20 184.20Q150.76 184.20 151.92 184.82Q153.09 185.45 153.74 186.58Q154.38 187.70 154.38 189.24L154.38 191.59L146.13 191.59L146.13 192.84Q146.13 194.30 146.97 195.16Q147.81 196.01 149.20 196.01Q150.40 196.01 151.18 195.54Q151.96 195.07 152.13 194.28L154.29 194.28Q154.07 195.94 152.68 196.91Q151.29 197.88 149.20 197.88M146.13 189.24L146.13 189.91L152.27 189.91L152.27 189.24Q152.27 187.68 151.47 186.83Q150.66 185.98 149.20 185.98Q147.74 185.98 146.93 186.83Q146.13 187.68 146.13 189.24" fill="white" fill-opacity="0.7"/>
<path d="M175.05 197.64L172.96 197.64L172.96 180.12L175.84 180.12L181.19 195.12Q181.14 194.52 181.08 193.64Q181.02 192.77 180.99 191.80Q180.95 190.82 180.95 189.96L180.95 180.12L183.04 180.12L183.04 197.64L180.16 197.64L174.83 182.64Q174.88 183.22 174.93 184.09Q174.98 184.97 175.01 185.94Q175.05 186.91 175.05 187.80" fill="white" fill-opacity="0.7"/>
<path d="M192.40 197.88Q190.07 197.88 188.64 196.48Q187.22 195.07 187.22 192.60L187.22 189.48Q187.22 187.01 188.64 185.60Q190.07 184.20 192.40 184.20Q193.96 184.20 195.12 184.82Q196.29 185.45 196.94 186.58Q197.58 187.70 197.58 189.24L197.58 191.59L189.33 191.59L189.33 192.84Q189.33 194.30 190.17 195.16Q191.01 196.01 192.40 196.01Q193.60 196.01 194.38 195.54Q195.16 195.07 195.33 194.28L197.49 194.28Q197.27 195.94 195.88 196.91Q194.49 197.88 192.40 197.88M189.33 189.24L189.33 189.91L195.47 189.91L195.47 189.24Q195.47 187.68 194.67 186.83Q193.86 185.98 192.40 185.98Q190.94 185.98 190.13 186.83Q189.33 187.68 189.33 189.24" fill="white" fill-opacity="0.7"/>
<path d="M211.96 197.64L208.12 197.64Q206.49 197.64 205.50 196.69Q204.52 195.74 204.52 194.16L204.52 186.41L200.73 186.41L200.73 184.44L204.52 184.44L204.52 180.72L206.68 180.72L206.68 184.44L212.08 184.44L212.08 186.41L206.68 186.41L206.68 194.16Q206.68 194.83 207.08 195.25Q207.47 195.67 208.12 195.67L211.96 195.67" fill="white" fill-opacity="0.7"/>
<path d="M219.28 197.64L216.90 197.64L214.74 184.44L216.62 184.44L217.96 193.75Q218.03 194.28 218.10 194.92Q218.18 195.55 218.20 195.96Q218.25 195.55 218.31 194.92Q218.37 194.28 218.46 193.75L220.12 184.44L222.28 184.44L223.94 193.75Q224.03 194.28 224.12 194.92Q224.20 195.55 224.22 195.96Q224.27 195.55 224.34 194.92Q224.42 194.28 224.49 193.75L225.88 184.44L227.66 184.44L225.40 197.64L223.02 197.64L221.51 188.52Q221.42 187.85 221.33 187.09Q221.25 186.34 221.20 185.93Q221.18 186.34 221.08 187.09Q220.98 187.85 220.86 188.52" fill="white" fill-opacity="0.7"/>
<path d="M235.60 197.83Q233.22 197.83 231.82 196.44Q230.42 195.05 230.42 192.55L230.42 189.53Q230.42 187.01 231.81 185.63Q233.20 184.25 235.60 184.25QNaN 184.25 239.39 185.63Q240.78 187.01 240.78 189.53L240.78 192.55Q240.78 195.05 239.38 196.44Q237.98 197.83 235.60 197.83M235.60 195.91Q237.02 195.91 237.82 195.12Q238.62 194.33 238.62 192.79L238.62 189.29Q238.62 187.75 237.82 186.96Q237.02 186.17 235.60 186.17Q234.21 186.17 233.39 186.96Q232.58 187.75 232.58 189.29L232.58 192.79Q232.58 194.33 233.39 195.12Q234.21 195.91 235.60 195.91" fill="white" fill-opacity="0.7"/>
<path d="M247.65 197.64L245.49 197.64L245.49 184.44L247.65 184.44L247.65 186.96L247.70 186.96Q247.86 185.69 248.78 184.94Q249.69 184.20 251.22 184.20Q253.29 184.20 254.40 185.44Q255.52 186.67 255.52 188.95L255.52 190.08L253.36 190.08L253.36 188.95Q253.36 186.07 250.55 186.07Q249.14 186.07 248.39 186.89Q247.65 187.70 247.65 189.24" fill="white" fill-opacity="0.7"/>
<path d="M261.69 197.64L259.53 197.64L259.53 180.12L261.69 180.12L261.69 189.89L264.21 189.89L267.90 184.44L270.38 184.44L266.13 190.73L270.62 197.64L268.10 197.64L264.26 191.76L261.69 191.76" fill="white" fill-opacity="0.7"/>
<path d="M292.74 197.64L288.21 197.64L288.21 180.12L292.74 180.12Q294.45 180.12 295.68 180.77Q296.92 181.42 297.60 182.59Q298.29 183.77 298.29 185.38L298.29 192.36Q298.29 193.97 297.60 195.16Q296.92 196.34 295.68 196.99Q294.45 197.64 292.74 197.64M290.37 182.04L290.37 195.72L292.74 195.72Q294.33 195.72 295.23 194.83Q296.13 193.94 296.13 192.36L296.13 185.38Q296.13 183.82 295.23 182.93Q294.33 182.04 292.74 182.04" fill="white" fill-opacity="0.7"/>
<path d="M313.72 197.64L302.44 197.64L302.44 195.67L307.12 195.67L307.12 186.41L302.92 186.41L302.92 184.44L309.28 184.44L309.28 195.67L313.72 195.67L313.72 197.64M307.96 182.06Q307.17 182.06 306.71 181.66Q306.26 181.25 306.26 180.55Q306.26 179.83 306.71 179.41Q307.17 178.99 307.96 178.99Q308.75 178.99 309.21 179.41Q309.66 179.83 309.66 180.55Q309.66 181.25 309.21 181.66Q308.75 182.06 307.96 182.06" fill="white" fill-opacity="0.7"/>
<path d="M322.53 197.83L321.47 197.83Q319.26 197.83 318.05 196.84Q316.84 195.84 316.84 194.02L319 194.02Q319 194.93 319.65 195.44Q320.30 195.96 321.47 195.96L322.53 195.96Q323.73 195.96 324.39 195.43Q325.05 194.90 325.05 193.94Q325.05 192.24 323.49 192.02L319.84 191.50Q318.50 191.30 317.75 190.38Q317.01 189.46 317.01 187.94Q317.01 186.22 318.20 185.23Q319.38 184.25 321.47 184.25L322.53 184.25Q324.45 184.25 325.66 185.20Q326.87 186.14 326.97 187.68L324.78 187.68Q324.74 186.98 324.12 186.53Q323.51 186.07 322.53 186.07L321.47 186.07Q320.37 186.07 319.74 186.58Q319.12 187.08 319.12 187.94Q319.12 189.34 320.39 189.53L323.80 190.01Q327.16 190.49 327.16 193.94Q327.16 195.79 325.95 196.81Q324.74 197.83 322.53 197.83" fill="white" fill-opacity="0.7"/>
<path d="M336.59 197.88Q334.19 197.88 332.75 196.54Q331.31 195.19 331.31 192.84L331.31 189.24Q331.31 186.89 332.75 185.54Q334.19 184.20 336.59 184.20Q338.87 184.20 340.28 185.42Q341.68 186.65 341.75 188.76L339.59 188.76Q339.52 187.49 338.73 186.80Q337.94 186.12 336.59 186.12Q335.18 186.12 334.32 186.92Q333.47 187.73 333.47 189.22L333.47 192.84Q333.47 194.33 334.32 195.14Q335.18 195.96 336.59 195.96Q337.94 195.96 338.73 195.26Q339.52 194.57 339.59 193.32L341.75 193.32Q341.68 195.43 340.28 196.66Q338.87 197.88 336.59 197.88" fill="white" fill-opacity="0.7"/>
<path d="M350.80 197.83Q348.42 197.83 347.02 196.44Q345.62 195.05 345.62 192.55L345.62 189.53Q345.62 187.01 347.01 185.63Q348.40 184.25 350.80 184.25Q353.20 184.25 354.59 185.63Q355.98 187.01 355.98 189.53L355.98 192.55Q355.98 195.05 354.58 196.44Q353.18 197.83 350.80 197.83M350.80 195.91Q352.22 195.91 353.02 195.12Q353.82 194.33 353.82 192.79L353.82 189.29Q353.82 187.75 353.02 186.96Q352.22 186.17 350.80 186.17Q349.41 186.17 348.59 186.96Q347.78 187.75 347.78 189.29L347.78 192.79Q347.78 194.33 348.59 195.12Q349.41 195.91 350.80 195.91" fill="white" fill-opacity="0.7"/>
<path d="M366.62 197.64L363.78 197.64L359.30 184.44L361.62 184.44L364.50 193.32Q364.77 194.11 364.96 194.84Q365.15 195.58 365.25 195.98Q365.37 195.58 365.54 194.84Q365.70 194.11 365.94 193.32L368.82 184.44L371.10 184.44" fill="white" fill-opacity="0.7"/>
<path d="M379.60 197.88Q377.27 197.88 375.84 196.48Q374.42 195.07 374.42 192.60L374.42 189.48Q374.42 187.01 375.84 185.60Q377.27 184.20 379.60 184.20Q381.16 184.20 382.32 184.82Q383.49 185.45 384.14 186.58Q384.78 187.70 384.78 189.24L384.78 191.59L376.53 191.59L376.53 192.84Q376.53 194.30 377.37 195.16Q378.21 196.01 379.60 196.01Q380.80 196.01 381.58 195.54Q382.36 195.07 382.53 194.28L384.69 194.28Q384.47 195.94 383.08 196.91Q381.69 197.88 379.60 197.88M376.53 189.24L376.53 189.91L382.67 189.91L382.67 189.24Q382.67 187.68 381.87 186.83Q381.06 185.98 379.60 185.98Q378.14 185.98 377.33 186.83Q376.53 187.68 376.53 189.24" fill="white" fill-opacity="0.7"/>
<path d="M391.65 197.64L389.49 197.64L389.49 184.44L391.65 184.44L391.65 186.96L391.70 186.96Q391.86 185.69 392.78 184.94Q393.69 184.20 395.22 184.20Q397.29 184.20 398.40 185.44Q399.52 186.67 399.52 188.95L399.52 190.08L397.36 190.08L397.36 188.95Q397.36 186.07 394.55 186.07Q393.14 186.07 392.39 186.89Q391.65 187.70 391.65 189.24" fill="white" fill-opacity="0.7"/>
<path d="M407.73 201.96L405.47 201.96L407.42 196.82L402.50 184.44L404.82 184.44L407.94 192.60Q408.14 193.08 408.30 193.61Q408.47 194.14 408.54 194.52Q408.62 194.14 408.78 193.61Q408.95 193.08 409.12 192.60L412.02 184.44L414.30 184.44" fill="white" fill-opacity="0.7"/>
<path d="M443.32 197.64L432.04 197.64L432.04 195.67L436.72 195.67L436.72 186.41L432.52 186.41L432.52 184.44L438.88 184.44L438.88 195.67L443.32 195.67L443.32 197.64M437.56 182.06Q436.77 182.06 436.31 181.66Q435.86 181.25 435.86 180.55Q435.86 179.83 436.31 179.41Q436.77 178.99 437.56 178.99Q438.35 178.99 438.81 179.41Q439.26 179.83 439.26 180.55Q439.26 181.25 438.81 181.66Q438.35 182.06 437.56 182.06" fill="white" fill-opacity="0.7"/>
<path d="M452.13 197.83L451.07 197.83Q448.86 197.83 447.65 196.84Q446.44 195.84 446.44 194.02L448.60 194.02Q448.60 194.93 449.25 195.44Q449.90 195.96 451.07 195.96L452.13 195.96Q453.33 195.96 453.99 195.43Q454.65 194.90 454.65 193.94Q454.65 192.24 453.09 192.02L449.44 191.50Q448.10 191.30 447.35 190.38Q446.61 189.46 446.61 187.94Q446.61 186.22 447.80 185.23Q448.98 184.25 451.07 184.25L452.13 184.25Q454.05 184.25 455.26 185.20Q456.47 186.14 456.57 187.68L454.38 187.68Q454.34 186.98 453.72 186.53Q453.11 186.07 452.13 186.07L451.07 186.07Q449.97 186.07 449.34 186.58Q448.72 187.08 448.72 187.94Q448.72 189.34 449.99 189.53L453.40 190.01Q456.76 190.49 456.76 193.94Q456.76 195.79 455.55 196.81Q454.34 197.83 452.13 197.83" fill="white" fill-opacity="0.7"/>
<path d="M477.57 197.64L475.41 197.64L475.41 184.44L477.57 184.44L477.57 186.96L477.59 186.96Q477.76 185.64 478.67 184.92Q479.58 184.20 481.10 184.20Q483.09 184.20 484.26 185.42Q485.44 186.65 485.44 188.76L485.44 197.64L483.28 197.64L483.28 189.14Q483.28 187.63 482.52 186.83Q481.77 186.02 480.47 186.02Q479.13 186.02 478.35 186.86Q477.57 187.70 477.57 189.24" fill="white" fill-opacity="0.7"/>
<path d="M494.80 197.83Q492.42 197.83 491.02 196.44Q489.62 195.05 489.62 192.55L489.62 189.53Q489.62 187.01 491.01 185.63Q492.40 184.25 494.80 184.25Q497.20 184.25 498.59 185.63Q499.98 187.01 499.98 189.53L499.98 192.55Q499.98 195.05 498.58 196.44Q497.18 197.83 494.80 197.83M494.80 195.91Q496.22 195.91 497.02 195.12Q497.82 194.33 497.82 192.79L497.82 189.29Q497.82 187.75 497.02 186.96Q496.22 186.17 494.80 186.17Q493.41 186.17 492.59 186.96Q491.78 187.75 491.78 189.29L491.78 192.79Q491.78 194.33 492.59 195.12Q493.41 195.91 494.80 195.91" fill="white" fill-opacity="0.7"/>
<path d="M507.28 197.64L504.90 197.64L502.74 184.44L504.62 184.44L505.96 193.75Q506.03 194.28 506.10 194.92Q506.18 195.55 506.20 195.96Q506.25 195.55 506.31 194.92Q506.37 194.28 506.46 193.75L508.12 184.44L510.28 184.44L511.94 193.75Q512.03 194.28 512.12 194.92Q512.20 195.55 512.22 195.96Q512.27 195.55 512.34 194.92Q512.42 194.28 512.49 193.75L513.88 184.44L515.66 184.44L513.40 197.64L511.02 197.64L509.51 188.52Q509.42 187.85 509.33 187.09Q509.25 186.34 509.20 185.93Q509.18 186.34 509.08 187.09Q508.98 187.85 508.86 188.52" fill="white" fill-opacity="0.7"/>
<path d="M535.65 197.64L533.49 197.64L533.49 184.44L535.65 184.44L535.65 186.96L535.70 186.96Q535.86 185.69 536.78 184.94Q537.69 184.20 539.22 184.20Q541.29 184.20 542.40 185.44Q543.52 186.67 543.52 188.95L543.52 190.08L541.36 190.08L541.36 188.95Q541.36 186.07 538.55 186.07Q537.14 186.07 536.39 186.89Q535.65 187.70 535.65 189.24" fill="white" fill-opacity="0.7"/>
<path d="M552.38 197.88Q550.10 197.88 548.73 196.52Q547.36 195.17 547.36 192.84L547.36 184.44L549.52 184.44L549.52 192.84Q549.52 194.28 550.29 195.13Q551.06 195.98 552.38 195.98Q553.72 195.98 554.50 195.13Q555.28 194.28 555.28 192.84L555.28 184.44L557.44 184.44L557.44 192.84Q557.44 195.17 556.05 196.52Q554.66 197.88 552.38 197.88" fill="white" fill-opacity="0.7"/>
<path d="M563.97 197.64L561.81 197.64L561.81 184.44L563.97 184.44L563.97 186.96L563.99 186.96Q564.16 185.64 565.07 184.92Q565.98 184.20 567.50 184.20Q569.49 184.20 570.66 185.42Q571.84 186.65 571.84 188.76L571.84 197.64L569.68 197.64L569.68 189.14Q569.68 187.63 568.92 186.83Q568.17 186.02 566.87 186.02Q565.53 186.02 564.75 186.86Q563.97 187.70 563.97 189.24" fill="white" fill-opacity="0.7"/>
<path d="M586.36 197.64L576.04 197.64L576.04 195.48L583.94 182.09L576.16 182.09L576.16 180.12L586.12 180.12L586.12 182.28L578.22 195.67L586.36 195.67" fill="white" fill-opacity="0.7"/>
<path d="M595.60 197.88Q593.27 197.88 591.84 196.48Q590.42 195.07 590.42 192.60L590.42 189.48Q590.42 187.01 591.84 185.60Q593.27 184.20 595.60 184.20Q597.16 184.20 598.32 184.82Q599.49 185.45 600.14 186.58Q600.78 187.70 600.78 189.24L600.78 191.59L592.53 191.59L592.53 192.84Q592.53 194.30 593.37 195.16Q594.21 196.01 595.60 196.01Q596.80 196.01 597.58 195.54Q598.36 195.07 598.53 194.28L600.69 194.28Q600.47 195.94 599.08 196.91Q597.69 197.88 595.60 197.88M592.53 189.24L592.53 189.91L598.67 189.91L598.67 189.24Q598.67 187.68 597.87 186.83Q597.06 185.98 595.60 185.98Q594.14 185.98 593.33 186.83Q592.53 187.68 592.53 189.24" fill="white" fill-opacity="0.7"/>
<path d="M607.65 197.64L605.49 197.64L605.49 184.44L607.65 184.44L607.65 186.96L607.70 186.96Q607.86 185.69 608.78 184.94Q609.69 184.20 611.22 184.20Q613.29 184.20 614.40 185.44Q615.52 186.67 615.52 188.95L615.52 190.08L613.36 190.08L613.36 188.95Q613.36 186.07 610.55 186.07Q609.14 186.07 608.39 186.89Q607.65 187.70 607.65 189.24" fill="white" fill-opacity="0.7"/>
<path d="M624.40 197.83Q622.02 197.83 620.62 196.44Q619.22 195.05 619.22 192.55L619.22 189.53Q619.22 187.01 620.61 185.63Q622 184.25 624.40 184.25Q626.80 184.25 628.19 185.63Q629.58 187.01 629.58 189.53L629.58 192.55Q629.58 195.05 628.18 196.44Q626.78 197.83 624.40 197.83M624.40 195.91Q625.82 195.91 626.62 195.12Q627.42 194.33 627.42 192.79L627.42 189.29Q627.42 187.75 626.62 186.96Q625.82 186.17 624.40 186.17Q623.01 186.17 622.19 186.96Q621.38 187.75 621.38 189.29L621.38 192.79Q621.38 194.33 622.19 195.12Q623.01 195.91 624.40 195.91" fill="white" fill-opacity="0.7"/>
<path d="M638.80 197.88Q637.91 197.88 637.37 197.35Q636.83 196.82 636.83 195.98Q636.83 195.10 637.37 194.54Q637.91 193.99 638.80 193.99Q639.69 193.99 640.23 194.54Q640.77 195.10 640.77 195.98Q640.77 196.82 640.23 197.35Q639.69 197.88 638.80 197.88" fill="white" fill-opacity="0.7"/>
<path d="M664.77 197.64L662.63 197.64L662.63 180.12L668.03 180.12Q669.59 180.12 670.77 180.76Q671.94 181.39 672.59 182.52Q673.24 183.65 673.24 185.16Q673.24 186.94 672.33 188.21Q671.42 189.48 669.90 189.98L673.48 197.64L671.10 197.64L667.67 190.20L664.77 190.20L664.77 197.64M664.77 182.06L664.77 188.26L668.03 188.26Q669.38 188.26 670.19 187.40Q671.01 186.55 671.01 185.16Q671.01 183.74 670.19 182.90Q669.38 182.06 668.03 182.06" fill="white" fill-opacity="0.7"/>
<path d="M682 197.88Q679.67 197.88 678.24 196.48Q676.82 195.07 676.82 192.60L676.82 189.48Q676.82 187.01 678.24 185.60Q679.67 184.20 682 184.20Q683.56 184.20 684.72 184.82Q685.89 185.45 686.54 186.58Q687.18 187.70 687.18 189.24L687.18 191.59L678.93 191.59L678.93 192.84Q678.93 194.30 679.77 195.16Q680.61 196.01 682 196.01Q683.20 196.01 683.98 195.54Q684.76 195.07 684.93 194.28L687.09 194.28Q686.87 195.94 685.48 196.91Q684.09 197.88 682 197.88M678.93 189.24L678.93 189.91L685.07 189.91L685.07 189.24Q685.07 187.68 684.27 186.83Q683.46 185.98 682 185.98Q680.54 185.98 679.73 186.83Q678.93 187.68 678.93 189.24" fill="white" fill-opacity="0.7"/>
<path d="M695.25 197.88Q693.21 197.88 692.01 196.74Q690.81 195.60 690.81 193.75Q690.81 192.53 691.36 191.62Q691.91 190.70 692.90 190.19Q693.88 189.67 695.15 189.67L699.23 189.67L699.23 188.64Q699.23 186.07 696.42 186.07Q695.18 186.07 694.41 186.53Q693.64 186.98 693.59 187.80L691.43 187.80Q691.55 186.24 692.88 185.22Q694.22 184.20 696.42 184.20Q698.82 184.20 700.11 185.35Q701.39 186.50 701.39 188.57L701.39 197.64L699.26 197.64L699.26 195.24L699.21 195.24Q699.02 196.46 697.98 197.17Q696.95 197.88 695.25 197.88M695.78 196.06Q697.36 196.06 698.30 195.29Q699.23 194.52 699.23 193.20L699.23 191.35L695.39 191.35Q694.34 191.35 693.68 191.99Q693.02 192.62 693.02 193.68Q693.02 194.78 693.75 195.42Q694.48 196.06 695.78 196.06" fill="white" fill-opacity="0.7"/>
<path d="M710.03 197.88Q708.06 197.88 706.88 196.56Q705.69 195.24 705.69 192.98L705.69 189.12Q705.69 186.84 706.86 185.52Q708.04 184.20 710.03 184.20Q711.52 184.20 712.49 184.94Q713.46 185.69 713.66 186.96L713.68 186.96L713.63 183.96L713.63 180.12L715.79 180.12L715.79 197.64L713.63 197.64L713.63 195.12L713.61 195.12Q713.44 196.42 712.48 197.15Q711.52 197.88 710.03 197.88M710.75 196.01Q712.10 196.01 712.86 195.17Q713.63 194.33 713.63 192.84L713.63 189.24Q713.63 187.75 712.86 186.91Q712.10 186.07 710.75 186.07Q709.38 186.07 708.62 186.78Q707.85 187.49 707.85 189.12L707.85 192.96Q707.85 194.57 708.62 195.29Q709.38 196.01 710.75 196.01" fill="white" fill-opacity="0.7"/>
<path d="M744.76 197.64L740.92 197.64Q739.29 197.64 738.30 196.69Q737.32 195.74 737.32 194.16L737.32 186.41L733.53 186.41L733.53 184.44L737.32 184.44L737.32 180.72L739.48 180.72L739.48 184.44L744.88 184.44L744.88 186.41L739.48 186.41L739.48 194.16Q739.48 194.83 739.88 195.25Q740.27 195.67 740.92 195.67L744.76 195.67" fill="white" fill-opacity="0.7"/>
<path d="M751.17 197.64L749.01 197.64L749.01 180.12L751.17 180.12L751.17 186.96L751.19 186.96Q751.36 185.64 752.27 184.92Q753.18 184.20 754.70 184.20Q756.69 184.20 757.86 185.42Q759.04 186.65 759.04 188.76L759.04 197.64L756.88 197.64L756.88 189.12Q756.88 187.63 756.12 186.83Q755.37 186.02 754.07 186.02Q752.73 186.02 751.95 186.86Q751.17 187.70 751.17 189.24" fill="white" fill-opacity="0.7"/>
<path d="M768.40 197.88Q766.07 197.88 764.64 196.48Q763.22 195.07 763.22 192.60L763.22 189.48Q763.22 187.01 764.64 185.60Q766.07 184.20 768.40 184.20Q769.96 184.20 771.12 184.82Q772.29 185.45 772.94 186.58Q773.58 187.70 773.58 189.24L773.58 191.59L765.33 191.59L765.33 192.84Q765.33 194.30 766.17 195.16Q767.01 196.01 768.40 196.01Q769.60 196.01 770.38 195.54Q771.16 195.07 771.33 194.28L773.49 194.28Q773.27 195.94 771.88 196.91Q770.49 197.88 768.40 197.88M765.33 189.24L765.33 189.91L771.47 189.91L771.47 189.24Q771.47 187.68 770.67 186.83Q769.86 185.98 768.40 185.98Q766.94 185.98 766.13 186.83Q765.33 187.68 765.33 189.24" fill="white" fill-opacity="0.7"/>
<path d="M796.05 197.88Q794.01 197.88 792.81 196.74Q791.61 195.60 791.61 193.75Q791.61 192.53 792.16 191.62Q792.71 190.70 793.70 190.19Q794.68 189.67 795.95 189.67L800.03 189.67L800.03 188.64Q800.03 186.07 797.22 186.07Q795.98 186.07 795.21 186.53Q794.44 186.98 794.39 187.80L792.23 187.80Q792.35 186.24 793.68 185.22Q795.02 184.20 797.22 184.20Q799.62 184.20 800.91 185.35Q802.19 186.50 802.19 188.57L802.19 197.64L800.06 197.64L800.06 195.24L800.01 195.24Q799.82 196.46 798.78 197.17Q797.75 197.88 796.05 197.88M796.58 196.06Q798.16 196.06 799.10 195.29Q800.03 194.52 800.03 193.20L800.03 191.35L796.19 191.35Q795.14 191.35 794.48 191.99Q793.82 192.62 793.82 193.68Q793.82 194.78 794.55 195.42Q795.28 196.06 796.58 196.06" fill="white" fill-opacity="0.7"/>
<path d="M808.77 197.64L806.61 197.64L806.61 184.44L808.77 184.44L808.77 186.96L808.79 186.96Q808.96 185.64 809.87 184.92Q810.78 184.20 812.30 184.20Q814.29 184.20 815.46 185.42Q816.64 186.65 816.64 188.76L816.64 197.64L814.48 197.64L814.48 189.14Q814.48 187.63 813.72 186.83Q812.97 186.02 811.67 186.02Q810.33 186.02 809.55 186.86Q808.77 187.70 808.77 189.24" fill="white" fill-opacity="0.7"/>
<path d="M823.17 197.64L821.01 197.64L821.01 184.44L823.17 184.44L823.17 186.96L823.19 186.96Q823.36 185.64 824.27 184.92Q825.18 184.20 826.70 184.20Q828.69 184.20 829.86 185.42Q831.04 186.65 831.04 188.76L831.04 197.64L828.88 197.64L828.88 189.14Q828.88 187.63 828.12 186.83Q827.37 186.02 826.07 186.02Q824.73 186.02 823.95 186.86Q823.17 187.70 823.17 189.24" fill="white" fill-opacity="0.7"/>
<path d="M840.40 197.83Q838.02 197.83 836.62 196.44Q835.22 195.05 835.22 192.55L835.22 189.53Q835.22 187.01 836.61 185.63Q838 184.25 840.40 184.25Q842.80 184.25 844.19 185.63Q845.58 187.01 845.58 189.53L845.58 192.55Q845.58 195.05 844.18 196.44Q842.78 197.83 840.40 197.83M840.40 195.91Q841.82 195.91 842.62 195.12Q843.42 194.33 843.42 192.79L843.42 189.29Q843.42 187.75 842.62 186.96Q841.82 186.17 840.40 186.17Q839.01 186.17 838.19 186.96Q837.38 187.75 837.38 189.29L837.38 192.79Q837.38 194.33 838.19 195.12Q839.01 195.91 840.40 195.91" fill="white" fill-opacity="0.7"/>
<path d="M854.78 197.88Q852.50 197.88 851.13 196.52Q849.76 195.17 849.76 192.84L849.76 184.44L851.92 184.44L851.92 192.84Q851.92 194.28 852.69 195.13Q853.46 195.98 854.78 195.98Q856.12 195.98 856.90 195.13Q857.68 194.28 857.68 192.84L857.68 184.44L859.84 184.44L859.84 192.84Q859.84 195.17 858.45 196.52Q857.06 197.88 854.78 197.88" fill="white" fill-opacity="0.7"/>
<path d="M866.37 197.64L864.21 197.64L864.21 184.44L866.37 184.44L866.37 186.96L866.39 186.96Q866.56 185.64 867.47 184.92Q868.38 184.20 869.90 184.20Q871.89 184.20 873.06 185.42Q874.24 186.65 874.24 188.76L874.24 197.64L872.08 197.64L872.08 189.14Q872.08 187.63 871.32 186.83Q870.57 186.02 869.27 186.02Q867.93 186.02 867.15 186.86Q866.37 187.70 866.37 189.24" fill="white" fill-opacity="0.7"/>
<path d="M883.79 197.88Q881.39 197.88 879.95 196.54Q878.51 195.19 878.51 192.84L878.51 189.24Q878.51 186.89 879.95 185.54Q881.39 184.20 883.79 184.20Q886.07 184.20 887.48 185.42Q888.88 186.65 888.95 188.76L886.79 188.76Q886.72 187.49 885.93 186.80Q885.14 186.12 883.79 186.12Q882.38 186.12 881.52 186.92Q880.67 187.73 880.67 189.22L880.67 192.84Q880.67 194.33 881.52 195.14Q882.38 195.96 883.79 195.96Q885.14 195.96 885.93 195.26Q886.72 194.57 886.79 193.32L888.95 193.32Q888.88 195.43 887.48 196.66Q886.07 197.88 883.79 197.88" fill="white" fill-opacity="0.7"/>
<path d="M898 197.88Q895.67 197.88 894.24 196.48Q892.82 195.07 892.82 192.60L892.82 189.48Q892.82 187.01 894.24 185.60Q895.67 184.20 898 184.20Q899.56 184.20 900.72 184.82Q901.89 185.45 902.54 186.58Q903.18 187.70 903.18 189.24L903.18 191.59L894.93 191.59L894.93 192.84Q894.93 194.30 895.77 195.16Q896.61 196.01 898 196.01Q899.20 196.01 899.98 195.54Q900.76 195.07 900.93 194.28L903.09 194.28Q902.87 195.94 901.48 196.91Q900.09 197.88 898 197.88M894.93 189.24L894.93 189.91L901.07 189.91L901.07 189.24Q901.07 187.68 900.27 186.83Q899.46 185.98 898 185.98Q896.54 185.98 895.73 186.83Q894.93 187.68 894.93 189.24" fill="white" fill-opacity="0.7"/>
<path d="M908.66 197.64L906.64 197.64L906.64 184.44L908.51 184.44L908.51 186.19L908.56 186.19Q908.68 185.30 909.27 184.75Q909.86 184.20 910.77 184.20Q911.63 184.20 912.23 184.70Q912.83 185.21 913.10 186.07L913.12 186.07Q913.29 185.21 913.88 184.70Q914.46 184.20 915.38 184.20Q916.65 184.20 917.40 185.15Q918.16 186.10 918.16 187.61L918.16 197.64L916.14 197.64L916.14 187.58Q916.14 186.79 915.76 186.32Q915.38 185.86 914.70 185.86Q914.06 185.86 913.67 186.31Q913.29 186.77 913.29 187.56L913.29 197.64L911.51 197.64L911.51 187.58Q911.51 186.79 911.13 186.32Q910.74 185.86 910.10 185.86Q909.42 185.86 909.04 186.31Q908.66 186.77 908.66 187.56" fill="white" fill-opacity="0.7"/>
<path d="M926.80 197.88Q924.47 197.88 923.04 196.48Q921.62 195.07 921.62 192.60L921.62 189.48Q921.62 187.01 923.04 185.60Q924.47 184.20 926.80 184.20Q928.36 184.20 929.52 184.82Q930.69 185.45 931.34 186.58Q931.98 187.70 931.98 189.24L931.98 191.59L923.73 191.59L923.73 192.84Q923.73 194.30 924.57 195.16Q925.41 196.01 926.80 196.01Q928 196.01 928.78 195.54Q929.56 195.07 929.73 194.28L931.89 194.28Q931.67 195.94 930.28 196.91Q928.89 197.88 926.80 197.88M923.73 189.24L923.73 189.91L929.87 189.91L929.87 189.24Q929.87 187.68 929.07 186.83Q928.26 185.98 926.80 185.98Q925.34 185.98 924.53 186.83Q923.73 187.68 923.73 189.24" fill="white" fill-opacity="0.7"/>
<path d="M938.37 197.64L936.21 197.64L936.21 184.44L938.37 184.44L938.37 186.96L938.39 186.96Q938.56 185.64 939.47 184.92Q940.38 184.20 941.90 184.20Q943.89 184.20 945.06 185.42Q946.24 186.65 946.24 188.76L946.24 197.64L944.08 197.64L944.08 189.14Q944.08 187.63 943.32 186.83Q942.57 186.02 941.27 186.02Q939.93 186.02 939.15 186.86Q938.37 187.70 938.37 189.24" fill="white" fill-opacity="0.7"/>
<path d="M960.76 197.64L956.92 197.64Q955.29 197.64 954.30 196.69Q953.32 195.74 953.32 194.16L953.32 186.41L949.53 186.41L949.53 184.44L953.32 184.44L953.32 180.72L955.48 180.72L955.48 184.44L960.88 184.44L960.88 186.41L955.48 186.41L955.48 194.16Q955.48 194.83 955.88 195.25Q956.27 195.67 956.92 195.67L960.76 195.67" fill="white" fill-opacity="0.7"/>
<path d="M970 197.88Q969.11 197.88 968.57 197.35Q968.03 196.82 968.03 195.98Q968.03 195.10 968.57 194.54Q969.11 193.99 970 193.99Q970.89 193.99 971.43 194.54Q971.97 195.10 971.97 195.98Q971.97 196.82 971.43 197.35Q970.89 197.88 970 197.88" fill="white" fill-opacity="0.7"/>
<path d="M999.88 197.64L997.72 197.64L997.72 182.09L992.92 182.09L992.92 180.12L1004.68 180.12L1004.68 182.09L999.88 182.09" fill="white" fill-opacity="0.7"/>
<path d="M1010.37 197.64L1008.21 197.64L1008.21 180.12L1010.37 180.12L1010.37 186.96L1010.39 186.96Q1010.56 185.64 1011.47 184.92Q1012.38 184.20 1013.90 184.20Q1015.89 184.20 1017.06 185.42Q1018.24 186.65 1018.24 188.76L1018.24 197.64L1016.08 197.64L1016.08 189.12Q1016.08 187.63 1015.32 186.83Q1014.57 186.02 1013.27 186.02Q1011.93 186.02 1011.15 186.86Q1010.37 187.70 1010.37 189.24" fill="white" fill-opacity="0.7"/>
<path d="M1033.72 197.64L1022.44 197.64L1022.44 195.67L1027.12 195.67L1027.12 186.41L1022.92 186.41L1022.92 184.44L1029.28 184.44L1029.28 195.67L1033.72 195.67L1033.72 197.64M1027.96 182.06Q1027.17 182.06 1026.71 181.66Q1026.26 181.25 1026.26 180.55Q1026.26 179.83 1026.71 179.41Q1027.17 178.99 1027.96 178.99Q1028.75 178.99 1029.21 179.41Q1029.66 179.83 1029.66 180.55Q1029.66 181.25 1029.21 181.66Q1028.75 182.06 1027.96 182.06" fill="white" fill-opacity="0.7"/>
<path d="M1042.53 197.83L1041.47 197.83Q1039.26 197.83 1038.05 196.84Q1036.84 195.84 1036.84 194.02L1039 194.02Q1039 194.93 1039.65 195.44Q1040.30 195.96 1041.47 195.96L1042.53 195.96Q1043.73 195.96 1044.39 195.43Q1045.05 194.90 1045.05 193.94Q1045.05 192.24 1043.49 192.02L1039.84 191.50Q1038.50 191.30 1037.75 190.38Q1037.01 189.46 1037.01 187.94Q1037.01 186.22 1038.20 185.23Q1039.38 184.25 1041.47 184.25L1042.53 184.25Q1044.45 184.25 1045.66 185.20Q1046.87 186.14 1046.97 187.68L1044.78 187.68Q1044.74 186.98 1044.12 186.53Q1043.51 186.07 1042.53 186.07L1041.47 186.07Q1040.37 186.07 1039.74 186.58Q1039.12 187.08 1039.12 187.94Q1039.12 189.34 1040.39 189.53L1043.80 190.01Q1047.16 190.49 1047.16 193.94Q1047.16 195.79 1045.95 196.81Q1044.74 197.83 1042.53 197.83" fill="white" fill-opacity="0.7"/>
<path d="M1067.01 197.64L1064.80 197.64L1069.36 180.12L1072.26 180.12L1076.80 197.64L1074.62 197.64L1073.46 192.98L1068.16 192.98L1067.01 197.64M1069.94 185.74L1068.59 191.16L1073.01 191.16L1071.66 185.76Q1071.28 184.22 1071.06 183.19Q1070.85 182.16 1070.80 181.85Q1070.75 182.16 1070.54 183.19Q1070.32 184.22 1069.94 185.74" fill="white" fill-opacity="0.7"/>
<path d="M1082.37 197.64L1080.21 197.64L1080.21 180.12L1085.85 180.12Q1088.30 180.12 1089.75 181.52Q1091.20 182.93 1091.20 185.28Q1091.20 187.63 1089.75 189.04Q1088.30 190.44 1085.85 190.44L1082.37 190.44L1082.37 197.64M1082.37 182.06L1082.37 188.50L1085.85 188.50Q1087.26 188.50 1088.12 187.62Q1088.97 186.74 1088.97 185.28Q1088.97 183.79 1088.12 182.93Q1087.26 182.06 1085.85 182.06" fill="white" fill-opacity="0.7"/>
<path d="M1104.28 197.64L1094.92 197.64L1094.92 195.67L1098.50 195.67L1098.50 182.09L1094.92 182.09L1094.92 180.12L1104.28 180.12L1104.28 182.09L1100.70 182.09L1100.70 195.67L1104.28 195.67" fill="white" fill-opacity="0.7"/>
<path d="M1134.52 197.64L1123.24 197.64L1123.24 195.67L1127.92 195.67L1127.92 186.41L1123.72 186.41L1123.72 184.44L1130.08 184.44L1130.08 195.67L1134.52 195.67L1134.52 197.64M1128.76 182.06Q1127.97 182.06 1127.51 181.66Q1127.06 181.25 1127.06 180.55Q1127.06 179.83 1127.51 179.41Q1127.97 178.99 1128.76 178.99Q1129.55 178.99 1130.01 179.41Q1130.46 179.83 1130.46 180.55Q1130.46 181.25 1130.01 181.66Q1129.55 182.06 1128.76 182.06" fill="white" fill-opacity="0.7"/>
<path d="M1143.33 197.83L1142.27 197.83Q1140.06 197.83 1138.85 196.84Q1137.64 195.84 1137.64 194.02L1139.80 194.02Q1139.80 194.93 1140.45 195.44Q1141.10 195.96 1142.27 195.96L1143.33 195.96Q1144.53 195.96 1145.19 195.43Q1145.85 194.90 1145.85 193.94Q1145.85 192.24 1144.29 192.02L1140.64 191.50Q1139.30 191.30 1138.55 190.38Q1137.81 189.46 1137.81 187.94Q1137.81 186.22 1139 185.23Q1140.18 184.25 1142.27 184.25L1143.33 184.25Q1145.25 184.25 1146.46 185.20Q1147.67 186.14 1147.77 187.68L1145.58 187.68Q1145.54 186.98 1144.92 186.53Q1144.31 186.07 1143.33 186.07L1142.27 186.07Q1141.17 186.07 1140.54 186.58Q1139.92 187.08 1139.92 187.94Q1139.92 189.34 1141.19 189.53L1144.60 190.01Q1147.96 190.49 1147.96 193.94Q1147.96 195.79 1146.75 196.81Q1145.54 197.83 1143.33 197.83" fill="white" fill-opacity="0.7"/>
<path d="M77.32 229.64L75.16 229.64L75.16 220.21L71.32 220.21L71.32 218.24L75.16 218.24L75.16 215.48Q75.16 213.92 76.14 213.02Q77.13 212.12 78.86 212.12L82.72 212.12L82.72 214.09L78.86 214.09Q77.32 214.09 77.32 215.48L77.32 218.24L82.72 218.24L82.72 220.21L77.32 220.21" fill="white" fill-opacity="0.7"/>
<path d="M89.25 229.64L87.09 229.64L87.09 216.44L89.25 216.44L89.25 218.96L89.30 218.96Q89.46 217.69 90.38 216.94Q91.29 216.20 92.82 216.20Q94.89 216.20 96 217.44Q97.12 218.67 97.12 220.95L97.12 222.08L94.96 222.08L94.96 220.95Q94.96 218.07 92.15 218.07Q90.74 218.07 89.99 218.89Q89.25 219.70 89.25 221.24" fill="white" fill-opacity="0.7"/>
<path d="MNaN 229.83Q103.62 229.83 102.22 228.44Q100.82 227.05 100.82 224.55L100.82 221.53Q100.82 219.01 102.21 217.63Q103.60 216.25 NaN 216.25Q108.40 216.25 109.79 217.63Q111.18 219.01 111.18 221.53L111.18 224.55Q111.18 227.05 109.78 228.44Q108.38 229.83 NaN 229.83MNaN 227.91Q107.42 227.91 108.22 227.12Q109.02 226.33 109.02 224.79L109.02 221.29Q109.02 219.75 108.22 218.96Q107.42 218.17 NaN 218.17Q104.61 218.17 103.79 218.96Q102.98 219.75 102.98 221.29L102.98 224.79Q102.98 226.33 103.79 227.12Q104.61 227.91 NaN 227.91" fill="white" fill-opacity="0.7"/>
<path d="M125.44 229.64L115.36 229.64L115.36 227.48L122.75 218.41L115.55 218.41L115.55 216.44L125.18 216.44L125.18 218.60L117.64 227.67L125.44 227.67" fill="white" fill-opacity="0.7"/>
<path d="M134.80 229.88Q132.47 229.88 131.04 228.48Q129.62 227.07 129.62 224.60L129.62 221.48Q129.62 219.01 131.04 217.60Q132.47 216.20 134.80 216.20Q136.36 216.20 137.52 216.82Q138.69 217.45 139.34 218.58Q139.98 219.70 139.98 221.24L139.98 223.59L131.73 223.59L131.73 224.84Q131.73 226.30 132.57 227.16Q133.41 228.01 134.80 228.01QNaN 228.01 136.78 227.54Q137.56 227.07 137.73 226.28L139.89 226.28Q139.67 227.94 138.28 228.91Q136.89 229.88 134.80 229.88M131.73 221.24L131.73 221.91L137.87 221.91L137.87 221.24Q137.87 219.68 137.07 218.83Q136.26 217.98 134.80 217.98Q133.34 217.98 132.53 218.83Q131.73 219.68 131.73 221.24" fill="white" fill-opacity="0.7"/>
<path d="M146.37 229.64L144.21 229.64L144.21 216.44L146.37 216.44L146.37 218.96L146.39 218.96Q146.56 217.64 147.47 216.92Q148.38 216.20 149.90 216.20Q151.89 216.20 153.06 217.42Q154.24 218.65 154.24 220.76L154.24 229.64L152.08 229.64L152.08 221.14Q152.08 219.63 151.32 218.83Q150.57 218.02 149.27 218.02Q147.93 218.02 147.15 218.86Q146.37 219.70 146.37 221.24" fill="white" fill-opacity="0.7"/>
<path d="M176.85 229.88Q174.81 229.88 173.61 228.74Q172.41 227.60 172.41 225.75Q172.41 224.53 172.96 223.62Q173.51 222.70 174.50 222.19Q175.48 221.67 176.75 221.67L180.83 221.67L180.83 220.64Q180.83 218.07 178.02 218.07Q176.78 218.07 176.01 218.53Q175.24 218.98 175.19 219.80L173.03 219.80Q173.15 218.24 174.48 217.22Q175.82 216.20 178.02 216.20Q180.42 216.20 181.71 217.35Q182.99 218.50 182.99 220.57L182.99 229.64L180.86 229.64L180.86 227.24L180.81 227.24Q180.62 228.46 179.58 229.17Q178.55 229.88 176.85 229.88M177.38 228.06Q178.96 228.06 179.90 227.29Q180.83 226.52 180.83 225.20L180.83 223.35L176.99 223.35Q175.94 223.35 175.28 223.99Q174.62 224.62 174.62 225.68Q174.62 226.78 175.35 227.42Q176.08 228.06 177.38 228.06" fill="white" fill-opacity="0.7"/>
<path d="M189.57 229.64L187.41 229.64L187.41 216.44L189.57 216.44L189.57 218.96L189.59 218.96Q189.76 217.64 190.67 216.92Q191.58 216.20 193.10 216.20Q195.09 216.20 196.26 217.42Q197.44 218.65 197.44 220.76L197.44 229.64L195.28 229.64L195.28 221.14Q195.28 219.63 194.52 218.83Q193.77 218.02 192.47 218.02Q191.13 218.02 190.35 218.86Q189.57 219.70 189.57 221.24" fill="white" fill-opacity="0.7"/>
<path d="M206.03 229.88Q204.06 229.88 202.88 228.56Q201.69 227.24 201.69 224.98L201.69 221.12Q201.69 218.84 202.86 217.52Q204.04 216.20 206.03 216.20Q207.52 216.20 208.49 216.94Q209.46 217.69 209.66 218.96L209.68 218.96L209.63 215.96L209.63 212.12L211.79 212.12L211.79 229.64L209.63 229.64L209.63 227.12L209.61 227.12Q209.44 228.42 208.48 229.15Q207.52 229.88 206.03 229.88M206.75 228.01Q208.10 228.01 208.86 227.17Q209.63 226.33 209.63 224.84L209.63 221.24Q209.63 219.75 208.86 218.91Q208.10 218.07 206.75 218.07Q205.38 218.07 204.62 218.78Q203.85 219.49 203.85 221.12L203.85 224.96Q203.85 226.57 204.62 227.29Q205.38 228.01 206.75 228.01" fill="white" fill-opacity="0.7"/>
<path d="M232.77 229.64L230.61 229.64L230.61 216.44L232.77 216.44L232.77 218.96L232.79 218.96Q232.96 217.64 233.87 216.92Q234.78 216.20 236.30 216.20Q238.29 216.20 239.46 217.42Q240.64 218.65 240.64 220.76L240.64 229.64L238.48 229.64L238.48 221.14Q238.48 219.63 237.72 218.83Q236.97 218.02 235.67 218.02Q234.33 218.02 233.55 218.86Q232.77 219.70 232.77 221.24" fill="white" fill-opacity="0.7"/>
<path d="MNaN 229.83Q247.62 229.83 246.22 228.44Q244.82 227.05 244.82 224.55L244.82 221.53Q244.82 219.01 246.21 217.63Q247.60 216.25 NaN 216.25Q252.40 216.25 253.79 217.63Q255.18 219.01 255.18 221.53L255.18 224.55Q255.18 227.05 253.78 228.44Q252.38 229.83 NaN 229.83MNaN 227.91Q251.42 227.91 252.22 227.12Q253.02 226.33 253.02 224.79L253.02 221.29Q253.02 219.75 252.22 218.96Q251.42 218.17 NaN 218.17Q248.61 218.17 247.79 218.96Q246.98 219.75 246.98 221.29L246.98 224.79Q246.98 226.33 247.79 227.12Q248.61 227.91 NaN 227.91" fill="white" fill-opacity="0.7"/>
<path d="M284.80 229.64L280.72 229.64Q278.97 229.64 277.92 228.62Q276.88 227.60 276.88 225.92L276.88 214.09L272.32 214.09L272.32 212.12L279.04 212.12L279.04 225.92Q279.04 226.74 279.50 227.20Q279.95 227.67 280.72 227.67L284.80 227.67" fill="white" fill-opacity="0.7"/>
<path d="M293.20 229.83Q290.82 229.83 289.42 228.44Q288.02 227.05 288.02 224.55L288.02 221.53Q288.02 219.01 289.41 217.63Q290.80 216.25 293.20 216.25Q295.60 216.25 296.99 217.63Q298.38 219.01 298.38 221.53L298.38 224.55Q298.38 227.05 296.98 228.44Q295.58 229.83 293.20 229.83M293.20 227.91Q294.62 227.91 295.42 227.12Q296.22 226.33 296.22 224.79L296.22 221.29Q296.22 219.75 295.42 218.96Q294.62 218.17 293.20 218.17Q291.81 218.17 290.99 218.96Q290.18 219.75 290.18 221.29L290.18 224.79Q290.18 226.33 290.99 227.12Q291.81 227.91 293.20 227.91" fill="white" fill-opacity="0.7"/>
<path d="M304.77 229.64L302.61 229.64L302.61 216.44L304.77 216.44L304.77 218.96L304.79 218.96Q304.96 217.64 305.87 216.92Q306.78 216.20 308.30 216.20Q310.29 216.20 311.46 217.42Q312.64 218.65 312.64 220.76L312.64 229.64L310.48 229.64L310.48 221.14Q310.48 219.63 309.72 218.83Q308.97 218.02 307.67 218.02Q306.33 218.02 305.55 218.86Q304.77 219.70 304.77 221.24" fill="white" fill-opacity="0.7"/>
<path d="M322.36 233.96L318.66 233.96L318.66 231.99L322.38 231.99Q323.51 231.99 324.16 231.36Q324.81 230.72 324.81 229.64L324.81 228.44L324.86 226.28L324.78 226.28Q324.59 227.46 323.66 228.09Q322.72 228.73 321.30 228.73Q319.26 228.73 318.09 227.43Q316.91 226.14 316.91 223.88L316.91 221.10Q316.91 218.84 318.09 217.52Q319.26 216.20 321.30 216.20Q322.72 216.20 323.66 216.87Q324.59 217.54 324.78 218.72L324.83 218.72L324.83 216.44L326.97 216.44L326.97 229.64Q326.97 231.63 325.73 232.80Q324.50 233.96 322.36 233.96M321.95 226.93Q323.30 226.93 324.06 226.09Q324.83 225.25 324.83 223.76L324.83 221.24Q324.83 219.75 324.06 218.91Q323.30 218.07 321.95 218.07Q320.58 218.07 319.83 218.86Q319.07 219.66 319.07 221L319.07 224Q319.07 225.34 319.83 226.14Q320.58 226.93 321.95 226.93" fill="white" fill-opacity="0.7"/>
<path d="M336.40 229.88Q334.07 229.88 332.64 228.48Q331.22 227.07 331.22 224.60L331.22 221.48Q331.22 219.01 332.64 217.60Q334.07 216.20 336.40 216.20Q337.96 216.20 339.12 216.82Q340.29 217.45 340.94 218.58Q341.58 219.70 341.58 221.24L341.58 223.59L333.33 223.59L333.33 224.84Q333.33 226.30 334.17 227.16Q335.01 228.01 336.40 228.01Q337.60 228.01 338.38 227.54Q339.16 227.07 339.33 226.28L341.49 226.28Q341.27 227.94 339.88 228.91Q338.49 229.88 336.40 229.88M333.33 221.24L333.33 221.91L339.47 221.91L339.47 221.24Q339.47 219.68 338.67 218.83Q337.86 217.98 336.40 217.98Q334.94 217.98 334.13 218.83Q333.33 219.68 333.33 221.24" fill="white" fill-opacity="0.7"/>
<path d="M348.45 229.64L346.29 229.64L346.29 216.44L348.45 216.44L348.45 218.96L348.50 218.96Q348.66 217.69 349.58 216.94Q350.49 216.20 352.02 216.20Q354.09 216.20 355.20 217.44Q356.32 218.67 356.32 220.95L356.32 222.08L354.16 222.08L354.16 220.95Q354.16 218.07 351.35 218.07Q349.94 218.07 349.19 218.89Q348.45 219.70 348.45 221.24" fill="white" fill-opacity="0.7"/>
<path d="M380.37 229.88Q378.88 229.88 377.92 229.15Q376.96 228.42 376.79 227.12L376.77 227.12L376.77 229.64L374.61 229.64L374.61 212.12L376.77 212.12L376.77 215.96L376.72 218.96L376.74 218.96Q376.94 217.69 377.91 216.94Q378.88 216.20 380.37 216.20Q382.36 216.20 383.54 217.52Q384.71 218.84 384.71 221.12L384.71 224.98Q384.71 227.24 383.54 228.56Q382.36 229.88 380.37 229.88M379.65 228.01Q381.02 228.01 381.78 227.29Q382.55 226.57 382.55 224.96L382.55 221.12Q382.55 219.49 381.78 218.78Q381.02 218.07 379.65 218.07Q378.33 218.07 377.55 218.91Q376.77 219.75 376.77 221.24L376.77 224.84Q376.77 226.33 377.55 227.17Q378.33 228.01 379.65 228.01" fill="white" fill-opacity="0.7"/>
<path d="M394 229.88Q391.67 229.88 390.24 228.48Q388.82 227.07 388.82 224.60L388.82 221.48Q388.82 219.01 390.24 217.60Q391.67 216.20 394 216.20Q395.56 216.20 396.72 216.82Q397.89 217.45 398.54 218.58Q399.18 219.70 399.18 221.24L399.18 223.59L390.93 223.59L390.93 224.84Q390.93 226.30 391.77 227.16Q392.61 228.01 394 228.01Q395.20 228.01 395.98 227.54Q396.76 227.07 396.93 226.28L399.09 226.28Q398.87 227.94 397.48 228.91Q396.09 229.88 394 229.88M390.93 221.24L390.93 221.91L397.07 221.91L397.07 221.24Q397.07 219.68 396.27 218.83Q395.46 217.98 394 217.98Q392.54 217.98 391.73 218.83Q390.93 219.68 390.93 221.24" fill="white" fill-opacity="0.7"/>
<path d="M414.52 229.64L403.24 229.64L403.24 227.67L407.92 227.67L407.92 218.41L403.72 218.41L403.72 216.44L410.08 216.44L410.08 227.67L414.52 227.67L414.52 229.64M408.76 214.06Q407.97 214.06 407.51 213.66Q407.06 213.25 407.06 212.55Q407.06 211.83 407.51 211.41Q407.97 210.99 408.76 210.99Q409.55 210.99 410.01 211.41Q410.46 211.83 410.46 212.55Q410.46 213.25 410.01 213.66Q409.55 214.06 408.76 214.06" fill="white" fill-opacity="0.7"/>
<path d="M419.97 229.64L417.81 229.64L417.81 216.44L419.97 216.44L419.97 218.96L419.99 218.96Q420.16 217.64 421.07 216.92Q421.98 216.20 423.50 216.20Q425.49 216.20 426.66 217.42Q427.84 218.65 427.84 220.76L427.84 229.64L425.68 229.64L425.68 221.14Q425.68 219.63 424.92 218.83Q424.17 218.02 422.87 218.02Q421.53 218.02 420.75 218.86Q419.97 219.70 419.97 221.24" fill="white" fill-opacity="0.7"/>
<path d="M437.56 233.96L433.86 233.96L433.86 231.99L437.58 231.99Q438.71 231.99 439.36 231.36Q440.01 230.72 440.01 229.64L440.01 228.44L440.06 226.28L439.98 226.28Q439.79 227.46 438.86 228.09Q437.92 228.73 436.50 228.73Q434.46 228.73 433.29 227.43Q432.11 226.14 432.11 223.88L432.11 221.10Q432.11 218.84 433.29 217.52Q434.46 216.20 436.50 216.20Q437.92 216.20 438.86 216.87Q439.79 217.54 439.98 218.72L440.03 218.72L440.03 216.44L442.17 216.44L442.17 229.64Q442.17 231.63 440.93 232.80Q439.70 233.96 437.56 233.96M437.15 226.93Q438.50 226.93 439.26 226.09Q440.03 225.25 440.03 223.76L440.03 221.24Q440.03 219.75 439.26 218.91Q438.50 218.07 437.15 218.07Q435.78 218.07 435.03 218.86Q434.27 219.66 434.27 221L434.27 224Q434.27 225.34 435.03 226.14Q435.78 226.93 437.15 226.93" fill="white" fill-opacity="0.7"/>
<path d="M465.98 229.88Q463.70 229.88 462.33 228.52Q460.96 227.17 460.96 224.84L460.96 216.44L463.12 216.44L463.12 224.84Q463.12 226.28 463.89 227.13Q464.66 227.98 465.98 227.98Q467.32 227.98 468.10 227.13Q468.88 226.28 468.88 224.84L468.88 216.44L471.04 216.44L471.04 224.84Q471.04 227.17 469.65 228.52Q468.26 229.88 465.98 229.88" fill="white" fill-opacity="0.7"/>
<path d="M477.57 233.96L475.41 233.96L475.41 216.44L477.57 216.44L477.57 218.96L477.59 218.96Q477.76 217.66 478.72 216.93Q479.68 216.20 481.17 216.20Q483.16 216.20 484.34 217.51Q485.51 218.82 485.51 221.10L485.51 224.96Q485.51 227.24 484.34 228.56Q483.16 229.88 481.17 229.88Q479.68 229.88 478.72 229.14Q477.76 228.39 477.59 227.12L477.52 227.12L477.57 230.12L477.57 233.96M480.45 228.01Q481.82 228.01 482.58 227.29Q483.35 226.57 483.35 224.96L483.35 221.12Q483.35 219.49 482.58 218.78Q481.82 218.07 480.45 218.07Q479.13 218.07 478.35 218.91Q477.57 219.75 477.57 221.24L477.57 224.84Q477.57 226.33 478.35 227.17Q479.13 228.01 480.45 228.01" fill="white" fill-opacity="0.7"/>
<path d="M494.03 229.88Q492.06 229.88 490.88 228.56Q489.69 227.24 489.69 224.98L489.69 221.12Q489.69 218.84 490.86 217.52Q492.04 216.20 494.03 216.20Q495.52 216.20 496.49 216.94Q497.46 217.69 497.66 218.96L497.68 218.96L497.63 215.96L497.63 212.12L499.79 212.12L499.79 229.64L497.63 229.64L497.63 227.12L497.61 227.12Q497.44 228.42 496.48 229.15Q495.52 229.88 494.03 229.88M494.75 228.01Q496.10 228.01 496.86 227.17Q497.63 226.33 497.63 224.84L497.63 221.24Q497.63 219.75 496.86 218.91Q496.10 218.07 494.75 218.07Q493.38 218.07 492.62 218.78Q491.85 219.49 491.85 221.12L491.85 224.96Q491.85 226.57 492.62 227.29Q493.38 228.01 494.75 228.01" fill="white" fill-opacity="0.7"/>
<path d="M508.05 229.88Q506.01 229.88 504.81 228.74Q503.61 227.60 503.61 225.75Q503.61 224.53 504.16 223.62Q504.71 222.70 505.70 222.19Q506.68 221.67 507.95 221.67L512.03 221.67L512.03 220.64Q512.03 218.07 509.22 218.07Q507.98 218.07 507.21 218.53Q506.44 218.98 506.39 219.80L504.23 219.80Q504.35 218.24 505.68 217.22Q507.02 216.20 509.22 216.20Q511.62 216.20 512.91 217.35Q514.19 218.50 514.19 220.57L514.19 229.64L512.06 229.64L512.06 227.24L512.01 227.24Q511.82 228.46 510.78 229.17Q509.75 229.88 508.05 229.88M508.58 228.06Q510.16 228.06 511.10 227.29Q512.03 226.52 512.03 225.20L512.03 223.35L508.19 223.35Q507.14 223.35 506.48 223.99Q505.82 224.62 505.82 225.68Q505.82 226.78 506.55 227.42Q507.28 228.06 508.58 228.06" fill="white" fill-opacity="0.7"/>
<path d="M528.76 229.64L524.92 229.64Q523.29 229.64 522.30 228.69Q521.32 227.74 521.32 226.16L521.32 218.41L517.53 218.41L517.53 216.44L521.32 216.44L521.32 212.72L523.48 212.72L523.48 216.44L528.88 216.44L528.88 218.41L523.48 218.41L523.48 226.16Q523.48 226.83 523.88 227.25Q524.27 227.67 524.92 227.67L528.76 227.67" fill="white" fill-opacity="0.7"/>
<path d="M538 229.88Q535.67 229.88 534.24 228.48Q532.82 227.07 532.82 224.60L532.82 221.48Q532.82 219.01 534.24 217.60Q535.67 216.20 538 216.20Q539.56 216.20 540.72 216.82Q541.89 217.45 542.54 218.58Q543.18 219.70 543.18 221.24L543.18 223.59L534.93 223.59L534.93 224.84Q534.93 226.30 535.77 227.16Q536.61 228.01 538 228.01Q539.20 228.01 539.98 227.54Q540.76 227.07 540.93 226.28L543.09 226.28Q542.87 227.94 541.48 228.91Q540.09 229.88 538 229.88M534.93 221.24L534.93 221.91L541.07 221.91L541.07 221.24Q541.07 219.68 540.27 218.83Q539.46 217.98 538 217.98Q536.54 217.98 535.73 218.83Q534.93 219.68 534.93 221.24" fill="white" fill-opacity="0.7"/>
<path d="M552.40 229.88Q551.51 229.88 550.97 229.35Q550.43 228.82 550.43 227.98Q550.43 227.10 550.97 226.54Q551.51 225.99 552.40 225.99Q553.29 225.99 553.83 226.54Q554.37 227.10 554.37 227.98Q554.37 228.82 553.83 229.35Q553.29 229.88 552.40 229.88" fill="white" fill-opacity="0.7"/>
<path d="M566.80 229.88Q565.91 229.88 565.37 229.35Q564.83 228.82 564.83 227.98Q564.83 227.10 565.37 226.54Q565.91 225.99 566.80 225.99Q567.69 225.99 568.23 226.54Q568.77 227.10 568.77 227.98Q568.77 228.82 568.23 229.35Q567.69 229.88 566.80 229.88" fill="white" fill-opacity="0.7"/>
<path d="M79.95 136.06L70.54 136.06L70.54 65.98L92.24 65.98Q98.67 65.98 103.47 68.52Q108.27 71.07 110.96 75.63Q113.65 80.19 113.65 86.33Q113.65 93.44 110.05 98.52Q106.45 103.61 100.50 105.72L114.61 136.06L104.14 136.06L90.80 106.78L79.95 106.78L79.95 136.06M79.95 74.43L79.95 98.33L92.24 98.33Q97.62 98.33 100.74 95.07Q103.86 91.80 103.86 86.43Q103.86 80.96 100.69 77.69Q97.52 74.43 92.24 74.43L79.95 74.43M148.40 137.02Q138.51 137.02 133.18 131.55Q127.86 126.08 127.86 116.67L127.86 65.98L137.36 65.98L137.36 116.67Q137.36 122.24 140.10 125.40Q142.83 128.57 148.40 128.57Q153.87 128.57 156.70 125.40Q159.54 122.24 159.54 116.67L159.54 65.98L169.04 65.98L169.04 116.67Q169.04 126.17 163.71 131.60Q158.38 137.02 148.40 137.02M192.75 136.06L183.73 136.06L183.73 65.98L197.17 65.98L205.81 96.22L214.83 65.98L228.37 65.98L228.37 136.06L219.25 136.06L219.25 103.90Q219.25 98.81 219.44 92.62Q219.63 86.43 219.97 80.24Q220.30 74.04 220.69 69.05L209.74 104.96L201.68 104.96L191.12 69.92Q191.98 76.92 192.37 85.52Q192.75 94.11 192.75 103.90L192.75 136.06M264.94 136.06L243.34 136.06L243.34 65.98L263.60 65.98Q273.30 65.98 278.91 70.83Q284.53 75.68 284.53 84.12Q284.53 89.60 281.12 93.87Q277.71 98.14 272.34 99.10L272.34 99.39Q276.37 99.87 279.49 102.27Q282.61 104.67 284.38 108.36Q286.16 112.06 286.16 116.48Q286.16 125.50 280.45 130.78Q274.74 136.06 264.94 136.06M252.66 74.33L252.66 95.55L263.50 95.55Q268.88 95.55 271.95 92.72Q275.02 89.88 275.02 84.99Q275.02 80 271.95 77.16Q268.88 74.33 263.60 74.33L252.66 74.33M252.66 103.61L252.66 127.71L264.08 127.71Q269.94 127.71 273.30 124.59Q276.66 121.47 276.66 116.09Q276.66 110.52 273.30 107.07Q269.94 103.61 264.08 103.61L252.66 103.61M345.39 136.06L304.69 136.06L304.69 65.98L314.19 65.98L314.19 127.42L345.39 127.42L345.39 136.06M400.11 136.06L359.31 136.06L359.31 65.98L400.11 65.98L400.11 74.52L368.72 74.52L368.72 95.36L396.75 95.36L396.75 103.61L368.72 103.61L368.72 127.52L400.11 127.52L400.11 136.06M483.15 136.06L473.74 136.06L473.74 65.98L495.44 65.98Q501.87 65.98 506.67 68.52Q511.47 71.07 514.16 75.63Q516.85 80.19 516.85 86.33Q516.85 93.44 513.25 98.52Q509.65 103.61 503.70 105.72L517.81 136.06L507.34 136.06LNaN 106.78L483.15 106.78L483.15 136.06M483.15 74.43L483.15 98.33L495.44 98.33Q500.82 98.33 503.94 95.07Q507.06 91.80 507.06 86.43Q507.06 80.96 503.89 77.69Q500.72 74.43 495.44 74.43L483.15 74.43M551.60 137.02Q541.71 137.02 536.38 131.55Q531.06 126.08 531.06 116.67L531.06 65.98L540.56 65.98L540.56 116.67Q540.56 122.24 543.30 125.40Q546.03 128.57 551.60 128.57Q557.07 128.57 559.90 125.40Q562.74 122.24 562.74 116.67L562.74 65.98L572.24 65.98L572.24 116.67Q572.24 126.17 566.91 131.60Q561.58 137.02 551.60 137.02M597.58 136.06L588.66 136.06L588.66 65.98L600.94 65.98L621.87 125.12Q621.58 122.62 621.34 118.92Q621.10 115.23 620.96 111.24Q620.82 107.26 620.82 103.71L620.82 65.98L629.84 65.98L629.84 136.06L617.46 136.06L596.72 76.92Q596.91 79.42 597.10 83.02Q597.30 86.62 597.44 90.56Q597.58 94.49 597.58 97.95" fill="url(#paint2_linear_0_1)"/>
<g id="Group 1">
<rect id="Rectangle 1" x="26" y="168" width="12" height="184" rx="5" fill="url(#paint3_linear_0_1)" fill-opacity="0.9"/>
</g>
<g id="Group 1_2">
<rect id="Rectangle 2" x="26" y="38" width="12" height="119" rx="5" fill="url(#paint4_linear_0_1)" fill-opacity="0.9"/>
</g>
<ellipse id="Ellipse 1" cx="148.5" cy="573" rx="215.5" ry="214" fill="url(#paint5_linear_0_1)" fill-opacity="0.4"/>
<rect id="Rectangle 3" x="1229" y="48" width="300" height="300" rx="25" fill="#FFFBFB" fill-opacity="0.9"/>
<g id="placeholder-logo"><g transform="translate(1229,48) translate(0.0,60.0) scale(1.2000)"><g fill="#666666">
  <path d="m88.05,27.65c-3.15,4 -3.2,51.2 -0.05,54.35c2.75,2.75 71.7,3.15 74.45,0.45c2.85,-2.9 2.3,-53.85 -0.65,-55.9c-1.95,-1.35 -7.15,-1.55 -36.95,-1.55l-34.7,0l-2.1,2.65zm69.45,3.35c0.65,0 1,8.6 1,23.75l0,23.75l-33,0l-33,0l-0.25,-23c-0.15,-12.6 -0.1,-23.45 0.15,-24.1c0.35,-0.85 8.9,-1.05 32.25,-0.75c17.55,0.2 32.3,0.35 32.85,0.35z"/>
  <path d="m99.15,37.3c-6.85,7.35 4.25,17.35 11.4,10.25c1.35,-1.35 2.45,-3.65 2.45,-5.05c0,-6.45 -9.35,-9.95 -13.85,-5.2z"/>
  <path d="m135,42.5c-0.7,0.85 -5.25,5.15 -10.1,9.6l-8.85,8.1l-3.2,-3.2l-3.15,-3.15l-6.35,6.3c-5.55,5.5 -6.35,6.75 -6.35,10.05l0,3.8l28.5,0l28.5,0l0,-8.6l0,-8.55l-8.15,-7.7c-9.35,-8.85 -9.15,-8.7 -10.85,-6.65zm7.25,15.2c0.95,0.9 1.75,2.9 1.75,4.45c6.35,-5.05 4.75,-7.15 4.9,-11.55c0.95,0 0,0 0,0l-6.65,7.1z"/>
  <path d="m53.65,110.75c0.1,4.8 0.45,8.65 0.75,8.5c0.35,-0.15 1.3,-0.25 2.1,-0.25c1.1,0 1.5,-1.2 1.5,-4.75l0,-4.75l3.25,5c4.9,7.5 6.2,6.75 6.55,-3.75c0.25,-8.15 0.15,-8.75 -1.7,-8.75c-1.65,0 -2.05,0.8 -2.3,4.75l-0.3,4.75l-2.8,-4.75c-4.85,-8.25 -7.25,-6.9 -7.05,4z"/>
  <path d="m91,108.9c0,9.65 0.3,10.1 6.1,10.1c5.8,0 7.15,-2.65 1.65,-3.2l-3.25,-0.3l-0.3,-6.75c-0.25,-5.95 -0.55,-6.75 -2.25,-6.75c-1.75,0 -1.95,0.7 -1.95,6.9z"/>
  <path d="m151,102.45c0,0.25 1,2.15 2.25,4.2c1.2,2.1 2.45,5.8 2.75,8.25c0.65,5.9 4,6.95 4,1.25c0.05,-2.1 1.25,-5.85 2.95,-8.9l2.9,-5.25l-2.5,0c-1.8,0 -2.8,0.85 -3.75,3.1l-1.3,3.05l-1.25,-3.05c-1.1,-2.6 -6.05,-4.8 -6.05,-2.65z"/>
  <path d="m191,107.45c0,9.05 3.4,8.85 4.25,-0.2c0.45,-5 0.35,-5.25 -1.9,-5.25c-2.2,0 -2.35,0.4 -2.35,5.45z"/>
  <path d="m180.8,104.75c-1.3,5.35 0.65,13.6 3.45,14.35c2.3,0.6 2.75,0.4 2.75,-1.2c0,-1.05 -0.45,-1.9 -1,-1.9c-0.55,0 -1,-1.6 -1,-3.5c0,-1.95 0.45,-3.5 1,-3.5c0.55,0 1,-0.7 1,-1.5c0,-0.85 -0.45,-1.5 -1,-1.5c-0.55,0 -1,-0.7 -1,-1.5c0,-2.1 -3.65,-1.9 -4.2,0.25z"/>
  <path d="m71.55,106.55c-2.2,2.25 -2.05,9.7 0.3,11.8c4.5,4.1 10.15,0.75 10.15,-6.1c0,-4.85 -2,-7.25 -6,-7.25c-1.55,0 -3.55,0.7 -4.45,1.55zm6.25,5.8c0.25,3.05 0,3.65 -1.6,3.65c-2.3,0 -3.25,-2.65 -2.05,-5.85c1.25,-3.35 3.3,-2.1 3.65,2.2z"/>
  <path d="m105.75,106.1c-2.5,1.45 -2.45,9.95 0.1,12.25c4.3,3.9 10.15,0.35 10.15,-6.2c0,-6 -5.15,-9.05 -10.25,-6.05zm6.05,6.25c0.25,3.05 0,3.65 -1.6,3.65c-2.3,0 -3.25,-2.65 -2.05,-5.85c1.25,-3.35 3.3,-2.1 3.65,2.2z"/>
  <path d="m119.2,106.2c-3.8,3.8 -0.4,12.55 4.4,11.35c1.9,-0.45 2.45,-0.3 2.15,0.65c-0.25,0.7 -1.55,1.2 -2.85,1.1c-4.05,-0.3 -5.35,0.45 -3.85,2.25c0.85,1.05 2.6,1.45 5.35,1.25l4.1,-0.3l0.3,-8.75l0.3,-8.75l-4.35,0c-2.4,0 -4.9,0.55 -5.55,1.2zm6.6,4.45c0.4,2.85 -2.15,4.85 -3.75,2.95c-0.9,-1.1 -0.9,-2 -0.05,-3.6c1.35,-2.5 3.4,-2.15 3.8,0.65z"/>
  <path d="m133.55,106.55c-2.2,2.25 -2.05,9.7 0.3,11.8c4.5,4.1 10.15,0.75 10.15,-6.1c0,-4.85 -2,-7.25 -6,-7.25c-1.55,0 -3.55,0.7 -4.45,1.55zm6.25,5.8c0.25,3.05 0,3.65 -1.6,3.65c-2.3,0 -3.25,-2.65 -2.05,-5.85c1.25,-3.35 3.3,-2.1 3.65,2.2z"/>
  <path d="m167.65,106.85c-3.9,4.3 -0.75,13.15 4.7,13.15c2.4,0 5.65,-2.75 5.65,-4.85c0,-1.4 -2.65,-1.55 -3.5,-0.15c-0.95,1.55 -4.5,1.15 -4.5,-0.5c0,-1.1 1.1,-1.5 4,-1.5c3.15,0 4,-0.35 4,-1.8c0,-5.3 -6.85,-8.25 -10.35,-4.35z"/>
  <path d="m191,117.5c0,2.15 0.4,2.6 2.25,2.3c1.5,-0.2 2.25,-1 2.25,-2.3c0,-1.3 -0.75,-2.1 -2.25,-2.3c-1.85,-0.3 -2.25,0.15 -2.25,2.3z"/>
 </g></g></g>
</g>
<defs>
<linearGradient id="paint0_linear_0_1" x1="0" y1="198" x2="1584" y2="198" gradientUnits="userSpaceOnUse">
<stop stop-color="#3D052C"/>
<stop offset="1"/>
</linearGradient>
<linearGradient id="paint1_linear_0_1" x1="323" y1="-224" x2="323" y2="352" gradientUnits="userSpaceOnUse">
<stop stop-color="#28F6F2" stop-opacity="0.4"/>
<stop offset="1" stop-color="#17908E" stop-opacity="0.7"/>
</linearGradient>
<linearGradient id="paint2_linear_0_1" x1="148.5" y1="38" x2="148.5" y2="140" gradientUnits="userSpaceOnUse">
<stop stop-color="white"/>
<stop offset="1" stop-color="#999999"/>
</linearGradient>
<linearGradient id="paint3_linear_0_1" x1="38" y1="260" x2="26" y2="260" gradientUnits="userSpaceOnUse">
<stop stop-color="#D9D9D9"/>
<stop offset="1" stop-color="#737373"/>
</linearGradient>
<linearGradient id="paint4_linear_0_1" x1="38" y1="97.5" x2="26" y2="97.5" gradientUnits="userSpaceOnUse">
<stop stop-color="#D9D9D9"/>
<stop offset="1" stop-color="#737373"/>
</linearGradient>
<linearGradient id="paint5_linear_0_1" x1="27.5" y1="434.5" x2="148.5" y2="787" gradientUnits="userSpaceOnUse">
<stop stop-color="#2E21BC"/>
<stop offset="1" stop-color="#150F56"/>
</linearGradient>
<clipPath id="clip0_0_1">
<rect width="1584" height="396" fill="white"/>
</clipPath>
</defs>
</svg>
